<svg width="488" height="380" viewBox="0 0 488 380" fill="none" xmlns="http://www.w3.org/2000/svg">
<g clip-path="url(#clip0_209_245)">
<path d="M486.99 246.13C486.99 275.6 486.99 305.06 487 334.53C487 342.96 484.57 350.65 479.94 357.64C473.38 367.55 464.07 373.27 452.45 375.37C451.67 375.51 450.88 375.61 450.09 375.65C449.05 375.7 448.01 375.65 446.75 375.65C446.61 374.83 446.4 374.1 446.37 373.35C446.3 371.63 446.32 369.91 446.32 368.2C446.32 299.5 446.32 230.79 446.32 162.09C446.32 152.85 446.32 143.6 446.32 134.36C446.32 133.7 446.29 133.03 446.16 132.39C445.79 130.67 444.51 129.58 442.85 129.48C441.2 129.38 439.76 130.31 439.2 131.95C438.95 132.68 438.71 133.55 438.87 134.26C439.49 137.03 439.02 139.79 439.02 142.54C439.06 190.37 439.08 238.2 439.09 286.03C439.09 295.09 432.92 301.85 423.86 302.68C422.29 302.82 420.69 302.82 419.11 302.82C391.76 302.82 364.41 302.81 337.07 302.79C336.28 302.79 335.49 302.73 334.69 302.76C329.56 302.93 324.99 301.69 321.4 296.83C319.37 301.2 315.99 302.21 312.34 302.63C310.64 302.82 308.91 302.82 307.19 302.82C296.49 302.82 285.79 302.8 275.09 302.77C273.25 302.77 271.38 302.76 269.56 302.52C266.85 302.16 264.54 300.94 262.85 298.71C262.54 298.3 262.2 297.9 261.94 297.57C260.98 297.35 260.67 298.04 260.27 298.49C257.84 301.23 254.69 302.4 251.16 302.69C249.84 302.8 248.52 302.82 247.2 302.82C237.42 302.82 227.65 302.81 217.87 302.79C217.61 302.79 217.35 302.7 216.8 302.59C216.52 301.76 216.19 300.8 215.87 299.83C213.72 293.23 209.57 288.52 202.73 286.74C190 283.44 181.16 291.83 179.23 300.01C179.05 300.77 178.84 301.52 178.63 302.3H175.05C173.99 296.6 171.12 291.92 166.07 288.72C161.95 286.11 157.4 285.58 152.72 286.27C143.87 287.57 137.47 295.43 137.26 305.06H131.96C131.96 305.06 131.79 314.67 130.31 323.76C124.83 349.15 104.33 371.37 74.26 375.34C56.87 377.64 40.98 373.18 26.93 362.55C14.11 352.84 6.14998 339.94 1.98998 324.51C0.509983 319.01 -0.0600165 313.41 -1.6511e-05 307.71C0.0999835 298.59 0.119983 289.48 0.199983 280.36C0.209983 278.64 0.309983 276.93 0.419983 275.21C1.02998 266.19 8.23998 257.56 19.46 256.79C28.94 256.15 38.08 263.35 40.01 273.08C40.5 275.52 40.67 278.06 40.7 280.56C40.81 290.47 40.47 299.89 40.77 310.28C41.26 327.01 58.76 341.7 77.02 332.81C85.03 328.91 89.57 322.13 90.91 313.29C91.09 312.12 91.16 310.92 91.17 309.74C91.21 296.26 91.22 282.79 91.25 269.31C91.28 254.38 91.35 239.45 91.36 224.52C91.36 196.77 91.33 169.03 91.33 141.28C91.33 136.53 91.18 131.76 91.46 127.02C92.55 108.45 105.99 93.73 123.08 89.95C125.75 89.36 128.46 88.67 131.49 89.43C131.91 91.65 132 93.87 132 96.07C132 113.38 131.95 130.69 131.93 148C131.92 156.72 131.91 165.44 131.9 174.16C131.9 192.26 131.89 210.36 131.9 228.46C131.91 238.24 131.97 248.02 132.02 257.79C132.02 259.09 132.11 260.4 132.16 261.9C135.01 262.61 137.77 262.17 140.48 262.29C143.12 262.41 145.76 262.32 148.41 262.32C151.17 262.32 153.93 262.32 156.87 262.32C157.09 261.39 157.39 260.66 157.42 259.93C157.5 257.69 157.5 255.44 157.48 253.19C157.46 251.12 158.12 249.36 159.41 247.72C164.32 241.47 169.57 235.55 175.49 230.24C180.73 225.55 186.48 221.58 192.75 218.38C194.26 217.61 195.76 216.78 197.63 216.53C198.23 218.93 198.32 221.28 198.3 223.65C198.23 234.61 198.17 245.58 198.12 256.54C198.12 258.37 197.94 260.24 198.75 262.15H225.17C226.21 261.12 225.9 259.87 225.91 258.73C225.96 251.86 225.95 244.99 225.99 238.12C226.03 231.12 226.09 224.12 226.16 217.12C226.16 216.48 226.28 215.84 226.37 214.96C227.27 215.02 228.03 214.96 228.74 215.12C237.87 217.22 246.99 219.37 256.12 221.47C259.46 222.24 262.82 222.88 266.1 223.56C266.99 225.06 266.65 226.54 266.65 227.95C266.69 237.73 266.67 247.51 266.68 257.28V261.73C267.49 261.96 268.09 262.27 268.7 262.28C272.53 262.33 276.36 262.32 280.19 262.3C280.69 262.3 281.19 262.14 281.78 262.03C282.5 259.1 282.36 256.2 282.36 253.32C282.36 245.52 282.27 237.73 282.26 229.93C282.26 228.38 282.21 226.8 282.59 225.33C307.6 222.75 304.54 222.45 322.22 215.15C322.98 215.52 322.77 216.27 322.8 216.87C322.92 219.11 323.05 221.36 323.05 223.6C323.08 234.83 323.07 246.06 323.07 257.29V261.54C323.65 261.85 323.98 262.19 324.31 262.19C328.79 262.23 333.27 262.21 337.97 262.21C338.16 261.26 338.45 260.4 338.47 259.54C338.54 256.63 338.52 253.73 338.52 250.82C338.54 236.29 338.55 221.75 338.57 207.22C338.57 206.43 338.59 205.63 338.57 204.84C338.55 203.58 338.98 202.65 339.96 201.75C342.58 199.34 345.12 196.83 347.55 194.22C357.97 183.03 366.33 170.38 373.45 156.89C374.87 154.21 376.17 151.46 377.55 148.76C377.76 148.34 378.09 147.97 378.36 147.58C379.36 148.08 379.03 148.83 379.03 149.4C379.07 159.97 379.1 170.54 379.1 181.11C379.1 206.08 379.1 231.05 379.1 256.03C379.1 257.98 378.95 259.95 379.37 261.81C382.45 262.41 393.63 262.52 398.26 262.01C398.39 261.18 398.64 260.3 398.66 259.42C398.72 255.59 398.72 251.76 398.72 247.93C398.74 210.54 398.76 173.15 398.75 135.75C398.75 130.84 399.01 125.97 400.56 121.27C406.2 104.15 417.64 93.08 435.43 89.82C450.29 87.1 463.35 91.66 474.1 102.43C480.35 108.7 484.24 116.23 485.91 124.88C486.76 129.3 487 133.79 487 138.29C486.98 174.23 486.98 210.17 486.98 246.11L486.99 246.13Z" fill="white"/>
<path d="M344.02 124.82C330.67 141.96 315.07 156.64 296.44 167.98C280.13 177.92 262.6 184.61 243.72 187.64C235.08 189.02 226.38 189.32 217.65 188.84C217.25 188.82 216.86 188.79 216.47 188.73C214.97 188.5 214.07 187.68 213.96 186.15C213.86 184.71 213.84 183.23 214.04 181.8C214.86 175.78 215.56 169.74 216.7 163.78C218.59 153.92 221.08 144.18 224.75 134.81C231.88 116.59 242.66 101.04 258.49 89.25C267.8 82.32 278.19 77.51 289.12 73.77C300.37 69.92 311.92 67.15 323.43 64.22C334.56 61.38 345.62 58.31 356.2 53.76C362.89 50.88 369.33 47.53 375.15 43.12C383.38 36.89 390.02 29.24 394.92 20.17C397.62 15.18 399.9 9.96999 402.37 4.85999C402.65 4.27999 402.93 3.68999 403.2 3.10999C404.24 0.719988 404.06 2.58999 403.98 4.61999C403.59 11.61 403.36 18.62 402.7 25.58C401.91 33.99 400.97 42.4 399.72 50.76C397.24 67.35 393.99 83.79 389.32 99.93C385.06 114.67 379.91 129.08 373.48 143.01C366.87 157.32 359.1 170.95 349.13 183.24C342.19 191.8 334.45 199.51 325.34 205.79C315.26 212.74 304.21 217.24 292.03 218.52C285.6 219.2 279.11 219.12 272.65 218.36C261.21 217 250.12 214.02 238.97 211.29C232.81 209.78 226.6 208.53 220.31 207.83C207.68 206.42 195.92 208.96 185.1 215.81C175.08 222.16 166.37 229.99 158.6 238.89C155.3 242.67 152.3 246.7 149.16 250.61C148.68 251.2 148.16 251.75 147.55 252.44C145.98 251.14 145.2 249.74 145.2 247.91C145.22 243.22 145.95 238.69 148.14 234.49C157.52 216.43 172.02 204.93 191.95 200.42C199.73 198.66 207.62 198.06 215.56 198.33C225.62 198.68 235.64 198.25 245.6 196.79C275.02 192.48 300.38 179.93 321.71 159.23C344.7 130.76 355.51 113.09 356.37 108.7C356.54 108.06 356.59 107.99 356.57 107.96C356.54 108.24 347.77 120.04 344.04 124.82H344.02Z" fill="white"/>
<path d="M197.81 146.83C197.98 150.56 198.24 153.97 198.26 157.38C198.32 167.66 198.29 177.95 198.28 188.23C198.28 189.79 198.18 191.36 198.13 193.1C196.54 193.46 195.16 193.82 193.76 194.07C181.33 196.34 170.11 201.21 160.42 209.43C159.73 210.02 158.99 210.54 158 211.3C157.77 210.59 157.51 210.15 157.51 209.71C157.51 201.15 157.45 192.58 157.94 184.02C158.91 167.38 171.11 152.44 187.23 148.1C190.52 147.21 193.82 146.3 197.82 146.83H197.81Z" fill="white"/>
<path d="M155.73 321.41C164.208 321.41 171.08 314.538 171.08 306.06C171.08 297.582 164.208 290.71 155.73 290.71C147.252 290.71 140.38 297.582 140.38 306.06C140.38 314.538 147.252 321.41 155.73 321.41Z" fill="white"/>
<path d="M197.51 321.41C205.988 321.41 212.86 314.538 212.86 306.06C212.86 297.582 205.988 290.71 197.51 290.71C189.032 290.71 182.16 297.582 182.16 306.06C182.16 314.538 189.032 321.41 197.51 321.41Z" fill="white"/>
<path d="M180.76 361.57V367.56H179.22C178.12 367.56 177.08 367.36 176.11 366.95C175.14 366.54 174.3 365.97 173.59 365.24C172.12 366.71 170.13 367.45 167.64 367.45C166.01 367.45 164.5 367.03 163.11 366.19C161.72 365.35 160.62 364.22 159.82 362.8C159.02 361.38 158.62 359.83 158.62 358.15V356.38C158.62 354.65 159.02 353.07 159.82 351.65C160.62 350.23 161.72 349.11 163.13 348.3C164.54 347.49 166.11 347.08 167.84 347.08H177.5V359.81C177.5 360.36 177.65 360.8 177.95 361.11C178.25 361.43 178.68 361.58 179.23 361.58H180.77L180.76 361.57ZM161.9 343.48C161.2 342.8 160.86 341.98 160.86 341.04C160.86 340.1 161.21 339.31 161.9 338.62C162.6 337.92 163.42 337.58 164.36 337.58C165.3 337.58 166.12 337.93 166.8 338.62C167.48 339.32 167.82 340.12 167.82 341.04C167.82 342.01 167.48 342.83 166.8 343.5C166.12 344.17 165.3 344.5 164.36 344.5C163.42 344.5 162.59 344.16 161.9 343.48ZM169.78 361C170.45 360.72 171.01 360.32 171.45 359.8V353.06H167.82C166.85 353.06 166.07 353.36 165.48 353.97C164.89 354.57 164.59 355.38 164.59 356.37V358.14C164.59 359.06 164.89 359.83 165.48 360.47C166.07 361.1 166.79 361.42 167.63 361.42C168.39 361.42 169.11 361.28 169.78 361.01V361ZM171 343.48C170.3 342.8 169.96 341.98 169.96 341.04C169.96 340.1 170.31 339.31 171 338.62C171.7 337.92 172.52 337.58 173.46 337.58C174.4 337.58 175.22 337.93 175.9 338.62C176.58 339.32 176.92 340.12 176.92 341.04C176.92 342.01 176.58 342.83 175.9 343.5C175.22 344.17 174.4 344.5 173.46 344.5C172.52 344.5 171.69 344.16 171 343.48Z" fill="white"/>
<path d="M213.9 361.57V367.56H180.56L178 366.61V362.51L180.56 361.56H183.59V349.11H189.58V353.17C193.15 349.18 196.8 347.18 200.54 347.18C207.79 347.18 211.42 351.45 211.42 359.99V361.57H213.9ZM205.62 359.99C205.62 357.76 205.08 356.05 204 354.87C202.92 353.69 201.5 353.1 199.74 353.1C197.98 353.1 196.23 353.56 194.58 354.48C192.92 355.4 191.26 356.87 189.58 358.89V361.57H205.62V359.99V359.99ZM197.8 343.75C197.1 343.07 196.76 342.24 196.76 341.27C196.76 340.35 197.11 339.54 197.8 338.85C198.5 338.15 199.32 337.81 200.26 337.81C201.2 337.81 202.02 338.16 202.7 338.85C203.38 339.55 203.72 340.35 203.72 341.27C203.72 342.24 203.38 343.07 202.7 343.75C202.02 344.43 201.2 344.77 200.26 344.77C199.32 344.77 198.49 344.43 197.8 343.75Z" fill="white"/>
<path d="M222.96 361.57V367.56H213.46V361.57H222.96Z" fill="white"/>
<path d="M231.67 361.57V367.56H222.17V361.57H231.67Z" fill="white"/>
<path d="M240.38 361.57V367.56H230.88V361.57H240.38Z" fill="white"/>
<path d="M249.09 361.57V367.56H239.59V361.57H249.09Z" fill="white"/>
<path d="M257.8 361.57V367.56H248.3V361.57H257.8Z" fill="white"/>
<path d="M266.51 361.57V367.56H257.01V361.57H266.51Z" fill="white"/>
<path d="M275.22 361.57V367.56H265.72V361.57H275.22Z" fill="white"/>
<path d="M277.7 361.57C278.04 361.57 278.36 361.44 278.67 361.18C278.97 360.92 279.12 360.51 279.12 359.96V348.89H285.15V362.17C285.15 363.69 284.63 364.97 283.59 366.01C282.55 367.05 281.27 367.57 279.75 367.57H274.15V361.58H277.7V361.57ZM278.31 378.32C277.61 377.64 277.27 376.82 277.27 375.88C277.27 374.94 277.62 374.15 278.31 373.46C279.01 372.76 279.83 372.42 280.77 372.42C281.71 372.42 282.53 372.77 283.21 373.46C283.89 374.16 284.23 374.96 284.23 375.88C284.23 376.85 283.89 377.67 283.21 378.34C282.53 379.01 281.71 379.35 280.77 379.35C279.83 379.35 279 379.01 278.31 378.33V378.32Z" fill="white"/>
<path d="M295.87 359.95C295.87 360.5 296.02 360.91 296.32 361.17C296.62 361.43 296.96 361.56 297.32 361.56H299.01V367.55H295.27C294.27 367.55 293.36 367.31 292.53 366.84C291.7 366.37 291.05 365.72 290.56 364.89C290.07 364.06 289.83 363.15 289.83 362.15V340.12H295.86V359.94L295.87 359.95Z" fill="white"/>
<path d="M322 361.57V367.56H298.51L295.91 366.61V362.51L298.51 361.56H301.78C301.25 360.56 300.99 359.45 300.99 358.21V356.44C300.99 354.71 301.39 353.13 302.19 351.71C302.99 350.29 304.1 349.18 305.52 348.38C306.94 347.58 308.53 347.18 310.29 347.18C312.05 347.18 313.67 347.58 315.08 348.38C316.49 349.18 317.59 350.29 318.39 351.69C319.19 353.1 319.59 354.68 319.59 356.44V358.21C319.59 359.39 319.31 360.51 318.76 361.56H321.99L322 361.57ZM302.55 343.84C301.85 343.16 301.51 342.33 301.51 341.36C301.51 340.44 301.86 339.64 302.55 338.96C303.25 338.28 304.07 337.94 305.01 337.94C305.95 337.94 306.77 338.28 307.45 338.96C308.13 339.64 308.47 340.44 308.47 341.36C308.47 342.33 308.13 343.16 307.45 343.84C306.77 344.52 305.95 344.86 305.01 344.86C304.07 344.86 303.24 344.52 302.55 343.84ZM313.6 356.45C313.6 355.45 313.3 354.66 312.71 354.07C312.12 353.48 311.31 353.18 310.29 353.18C309.27 353.18 308.46 353.48 307.87 354.07C307.28 354.66 306.98 355.46 306.98 356.45V358.22C306.98 359.11 307.34 359.89 308.06 360.56C308.78 361.23 309.58 361.57 310.44 361.57C311.3 361.57 312.08 361.25 312.69 360.6C313.29 359.96 313.6 359.16 313.6 358.22V356.45V356.45ZM311.65 343.84C310.95 343.16 310.61 342.33 310.61 341.36C310.61 340.44 310.96 339.64 311.65 338.96C312.35 338.28 313.17 337.94 314.11 337.94C315.05 337.94 315.84 338.28 316.53 338.96C317.23 339.64 317.57 340.44 317.57 341.36C317.57 342.28 317.23 343.13 316.55 343.82C315.87 344.52 315.05 344.86 314.11 344.86C313.17 344.86 312.34 344.52 311.65 343.84V343.84Z" fill="white"/>
<path d="M331.02 340.13V362.16C331.02 363.16 330.78 364.07 330.31 364.9C329.84 365.73 329.19 366.38 328.38 366.85C327.57 367.32 326.66 367.56 325.66 367.56H321.84L319.24 366.61V362.51L321.84 361.56H323.57C323.94 361.56 324.27 361.43 324.57 361.17C324.87 360.91 325.02 360.5 325.02 359.95V340.13H331.01H331.02Z" fill="white"/>
<path d="M336.19 367.56V340.13H342.18V367.56H336.19Z" fill="white"/>
<path d="M366.81 367.56H363.7V367.6C363.7 369.31 363.3 370.85 362.5 372.23C361.7 373.61 360.61 374.7 359.23 375.5C357.85 376.3 356.31 376.7 354.6 376.7H352.67V370.71H354.6C355.52 370.71 356.26 370.43 356.83 369.86C357.39 369.29 357.68 368.54 357.68 367.59V348.44H363.71V361.56H366.82V367.55L366.81 367.56Z" fill="white"/>
<path d="M386.67 361.57V367.56H381.63C379.84 367.56 378.17 366.81 376.63 365.31C375.13 366.81 373.15 367.56 370.68 367.56H366.23L363.63 366.61V362.55L366.23 361.56H370.76C371.86 361.56 372.61 361.29 372.99 360.75C373.37 360.21 373.57 359.47 373.6 358.52L373.56 348.86H379.59V355.91C379.59 356.49 379.58 356.95 379.55 357.29V358.35C379.55 359.35 379.75 360.13 380.16 360.69C380.57 361.26 381.34 361.54 382.47 361.54H386.69L386.67 361.57ZM373.45 372.31C374.15 373.01 374.49 373.81 374.49 374.73C374.49 375.7 374.14 376.53 373.45 377.21C372.75 377.89 371.93 378.23 370.99 378.23C370.05 378.23 369.23 377.89 368.55 377.21C367.87 376.53 367.53 375.7 367.53 374.73C367.53 373.81 367.87 373 368.55 372.31C369.23 371.61 370.05 371.27 370.99 371.27C371.93 371.27 372.76 371.62 373.45 372.31ZM382.53 372.31C383.21 373.01 383.55 373.81 383.55 374.73C383.55 375.7 383.21 376.53 382.53 377.21C381.85 377.89 381.03 378.23 380.09 378.23C379.15 378.23 378.33 377.89 377.65 377.21C376.97 376.53 376.63 375.7 376.63 374.73C376.63 373.81 376.97 373 377.65 372.31C378.33 371.61 379.15 371.27 380.09 371.27C381.03 371.27 381.85 371.62 382.53 372.31Z" fill="white"/>
<path d="M413.07 361.57V367.56H386.23L383.63 366.61V362.55L386.23 361.56H400.93C400.59 361.03 400.18 360.36 399.71 359.55C399.55 359.26 399.29 358.83 398.92 358.25C397.84 356.49 396.76 355.16 395.67 354.27C394.58 353.38 393.26 352.93 391.71 352.93C390.53 352.93 389.24 353.19 387.85 353.72V348.2C389.48 347.65 391.02 347.37 392.46 347.37C395.14 347.37 397.58 348.24 399.79 349.97C402 351.7 403.91 354.17 405.54 357.38C406.85 360.03 408.09 361.41 409.24 361.52V361.56H413.06L413.07 361.57ZM391.16 343.4C390.48 342.72 390.14 341.89 390.14 340.92C390.14 340 390.48 339.2 391.16 338.52C391.84 337.84 392.66 337.5 393.6 337.5C394.54 337.5 395.36 337.84 396.04 338.52C396.72 339.2 397.06 340 397.06 340.92C397.06 341.89 396.72 342.72 396.04 343.4C395.36 344.08 394.54 344.42 393.6 344.42C392.66 344.42 391.84 344.08 391.16 343.4Z" fill="white"/>
<path d="M422.14 340.13V362.16C422.14 363.16 421.9 364.07 421.43 364.9C420.96 365.73 420.31 366.38 419.5 366.85C418.69 367.32 417.78 367.56 416.78 367.56H412.96L410.36 366.61V362.51L412.96 361.56H414.69C415.06 361.56 415.39 361.43 415.69 361.17C415.99 360.91 416.14 360.5 416.14 359.95V340.13H422.13H422.14Z" fill="white"/>
<path d="M427.3 367.56V340.13H433.29V367.56H427.3Z" fill="white"/>
<path d="M486.99 244.13C486.99 273.6 486.99 303.06 487 332.53C487 340.96 484.57 348.65 479.94 355.64C473.38 365.55 464.07 371.27 452.45 373.37C451.67 373.51 450.88 373.61 450.09 373.65C449.05 373.7 448.01 373.65 446.75 373.65C446.61 372.83 446.4 372.1 446.37 371.35C446.3 369.63 446.32 367.91 446.32 366.2C446.32 297.5 446.32 228.79 446.32 160.09C446.32 150.85 446.32 141.6 446.32 132.36C446.32 131.7 446.29 131.03 446.16 130.39C445.79 128.67 444.51 127.58 442.85 127.48C441.2 127.38 439.76 128.31 439.2 129.95C438.95 130.68 438.71 131.55 438.87 132.26C439.49 135.03 439.02 137.79 439.02 140.54C439.06 188.37 439.08 236.2 439.09 284.03C439.09 293.09 432.92 299.85 423.86 300.68C422.29 300.82 420.69 300.82 419.11 300.82C391.76 300.82 364.41 300.81 337.07 300.79C336.28 300.79 335.49 300.73 334.69 300.76C329.56 300.93 324.99 299.69 321.4 294.83C319.37 299.2 315.99 300.21 312.34 300.63C310.64 300.82 308.91 300.82 307.19 300.82C296.49 300.82 285.79 300.8 275.09 300.77C273.25 300.77 271.38 300.76 269.56 300.52C266.85 300.16 264.54 298.94 262.85 296.71C262.54 296.3 262.2 295.9 261.94 295.57C260.98 295.35 260.67 296.04 260.27 296.49C257.84 299.23 254.69 300.4 251.16 300.69C249.84 300.8 248.52 300.82 247.2 300.82C237.42 300.82 227.65 300.81 217.87 300.79C217.61 300.79 217.35 300.7 216.8 300.59C216.52 299.76 216.19 298.8 215.87 297.83C213.72 291.23 209.57 286.52 202.73 284.74C190 281.44 181.16 289.83 179.23 298.01C179.05 298.77 178.84 299.52 178.63 300.3H175.05C173.99 294.6 171.12 289.92 166.07 286.72C161.95 284.11 157.4 283.58 152.72 284.27C143.87 285.57 137.47 293.43 137.26 303.06H131.96C131.96 303.06 131.79 312.67 130.31 321.76C124.83 347.15 104.33 369.37 74.26 373.34C56.87 375.64 40.98 371.18 26.93 360.55C14.11 350.84 6.14998 337.94 1.98998 322.51C0.509983 317.01 -0.0600165 311.41 -1.6511e-05 305.71C0.0999835 296.59 0.119983 287.48 0.199983 278.36C0.209983 276.64 0.309983 274.93 0.419983 273.21C1.02998 264.19 8.23998 255.56 19.46 254.79C28.94 254.15 38.08 261.35 40.01 271.08C40.5 273.52 40.67 276.06 40.7 278.56C40.81 288.47 40.47 297.89 40.77 308.28C41.26 325.01 58.76 339.7 77.02 330.81C85.03 326.91 89.57 320.13 90.91 311.29C91.09 310.12 91.16 308.92 91.17 307.74C91.21 294.26 91.22 280.79 91.25 267.31C91.28 252.38 91.35 237.45 91.36 222.52C91.36 194.77 91.33 167.03 91.33 139.28C91.33 134.53 91.18 129.76 91.46 125.02C92.55 106.45 105.99 91.73 123.08 87.95C125.75 87.36 128.46 86.67 131.49 87.43C131.91 89.65 132 91.87 132 94.07C132 111.38 131.95 128.69 131.93 146C131.92 154.72 131.91 163.44 131.9 172.16C131.9 190.26 131.89 208.36 131.9 226.46C131.91 236.24 131.97 246.02 132.02 255.79C132.02 257.09 132.11 258.4 132.16 259.9C135.01 260.61 137.77 260.17 140.48 260.29C143.12 260.41 145.76 260.32 148.41 260.32C151.17 260.32 153.93 260.32 156.87 260.32C157.09 259.39 157.39 258.66 157.42 257.93C157.5 255.69 157.5 253.44 157.48 251.19C157.46 249.12 158.12 247.36 159.41 245.72C164.32 239.47 169.57 233.55 175.49 228.24C180.73 223.55 186.48 219.58 192.75 216.38C194.26 215.61 195.76 214.78 197.63 214.53C198.23 216.93 198.32 219.28 198.3 221.65C198.23 232.61 198.17 243.58 198.12 254.54C198.12 256.37 197.94 258.24 198.75 260.15H225.17C226.21 259.12 225.9 257.87 225.91 256.73C225.96 249.86 225.95 242.99 225.99 236.12C226.03 229.12 226.09 222.12 226.16 215.12C226.16 214.48 226.28 213.84 226.37 212.96C227.27 213.02 228.03 212.96 228.74 213.12C237.87 215.22 246.99 217.37 256.12 219.47C259.46 220.24 262.82 220.88 266.1 221.56C266.99 223.06 266.65 224.54 266.65 225.95C266.69 235.73 266.67 245.51 266.68 255.28V259.73C267.49 259.96 268.09 260.27 268.7 260.28C272.53 260.33 276.36 260.32 280.19 260.3C280.69 260.3 281.19 260.14 281.78 260.03C282.5 257.1 282.36 254.2 282.36 251.32C282.36 243.52 282.27 235.73 282.26 227.93C282.26 226.38 282.21 224.8 282.59 223.33C307.6 220.75 304.54 220.45 322.22 213.15C322.98 213.52 322.77 214.27 322.8 214.87C322.92 217.11 323.05 219.36 323.05 221.6C323.08 232.83 323.07 244.06 323.07 255.29V259.54C323.65 259.85 323.98 260.19 324.31 260.19C328.79 260.23 333.27 260.21 337.97 260.21C338.16 259.26 338.45 258.4 338.47 257.54C338.54 254.63 338.52 251.73 338.52 248.82C338.54 234.29 338.55 219.75 338.57 205.22C338.57 204.43 338.59 203.63 338.57 202.84C338.55 201.58 338.98 200.65 339.96 199.75C342.58 197.34 345.12 194.83 347.55 192.22C357.97 181.03 366.33 168.38 373.45 154.89C374.87 152.21 376.17 149.46 377.55 146.76C377.76 146.34 378.09 145.97 378.36 145.58C379.36 146.08 379.03 146.83 379.03 147.4C379.07 157.97 379.1 168.54 379.1 179.11C379.1 204.08 379.1 229.05 379.1 254.03C379.1 255.98 378.95 257.95 379.37 259.81C382.45 260.41 393.63 260.52 398.26 260.01C398.39 259.18 398.64 258.3 398.66 257.42C398.72 253.59 398.72 249.76 398.72 245.93C398.74 208.54 398.76 171.15 398.75 133.75C398.75 128.84 399.01 123.97 400.56 119.27C406.2 102.15 417.64 91.08 435.43 87.82C450.29 85.1 463.35 89.66 474.1 100.43C480.35 106.7 484.24 114.23 485.91 122.88C486.76 127.3 487 131.79 487 136.29C486.98 172.23 486.98 208.17 486.98 244.11L486.99 244.13Z" fill="white"/>
<path d="M344.02 122.82C330.67 139.96 315.07 154.64 296.44 165.98C280.13 175.92 262.6 182.61 243.72 185.64C235.08 187.02 226.38 187.32 217.65 186.84C217.25 186.82 216.86 186.79 216.47 186.73C214.97 186.5 214.07 185.68 213.96 184.15C213.86 182.71 213.84 181.23 214.04 179.8C214.86 173.78 215.56 167.74 216.7 161.78C218.59 151.92 221.08 142.18 224.75 132.81C231.88 114.59 242.66 99.04 258.49 87.25C267.8 80.32 278.19 75.51 289.12 71.77C300.37 67.92 311.92 65.15 323.43 62.22C334.56 59.38 345.62 56.31 356.2 51.76C362.89 48.88 369.33 45.53 375.15 41.12C383.38 34.89 390.02 27.24 394.92 18.17C397.62 13.18 399.9 7.96999 402.37 2.85999C402.65 2.27999 402.93 1.68999 403.2 1.10999C404.24 -1.28001 404.06 0.589988 403.98 2.61999C403.59 9.60999 403.36 16.62 402.7 23.58C401.91 31.99 400.97 40.4 399.72 48.76C397.24 65.35 393.99 81.79 389.32 97.93C385.06 112.67 379.91 127.08 373.48 141.01C366.87 155.32 359.1 168.95 349.13 181.24C342.19 189.8 334.45 197.51 325.34 203.79C315.26 210.74 304.21 215.24 292.03 216.52C285.6 217.2 279.11 217.12 272.65 216.36C261.21 215 250.12 212.02 238.97 209.29C232.81 207.78 226.6 206.53 220.31 205.83C207.68 204.42 195.92 206.96 185.1 213.81C175.08 220.16 166.37 227.99 158.6 236.89C155.3 240.67 152.3 244.7 149.16 248.61C148.68 249.2 148.16 249.75 147.55 250.44C145.98 249.14 145.2 247.74 145.2 245.91C145.22 241.22 145.95 236.69 148.14 232.49C157.52 214.43 172.02 202.93 191.95 198.42C199.73 196.66 207.62 196.06 215.56 196.33C225.62 196.68 235.64 196.25 245.6 194.79C275.02 190.48 300.38 177.93 321.71 157.23C344.7 128.76 355.51 111.09 356.37 106.7C356.54 106.06 356.59 105.99 356.57 105.96C356.54 106.24 347.77 118.04 344.04 122.82H344.02Z" fill="#8CC05F"/>
<path d="M197.81 144.83C197.98 148.56 198.24 151.97 198.26 155.38C198.32 165.66 198.29 175.95 198.28 186.23C198.28 187.79 198.18 189.36 198.13 191.1C196.54 191.46 195.16 191.82 193.76 192.07C181.33 194.34 170.11 199.21 160.42 207.43C159.73 208.02 158.99 208.54 158 209.3C157.77 208.59 157.51 208.15 157.51 207.71C157.51 199.15 157.45 190.58 157.94 182.02C158.91 165.38 171.11 150.44 187.23 146.1C190.52 145.21 193.82 144.3 197.82 144.83H197.81Z" fill="white"/>
<path d="M155.73 319.41C164.208 319.41 171.08 312.538 171.08 304.06C171.08 295.582 164.208 288.71 155.73 288.71C147.252 288.71 140.38 295.582 140.38 304.06C140.38 312.538 147.252 319.41 155.73 319.41Z" fill="white"/>
<path d="M197.51 319.41C205.988 319.41 212.86 312.538 212.86 304.06C212.86 295.582 205.988 288.71 197.51 288.71C189.032 288.71 182.16 295.582 182.16 304.06C182.16 312.538 189.032 319.41 197.51 319.41Z" fill="white"/>
<path d="M180.76 359.57V365.56H179.22C178.12 365.56 177.08 365.36 176.11 364.95C175.14 364.54 174.3 363.97 173.59 363.24C172.12 364.71 170.13 365.45 167.64 365.45C166.01 365.45 164.5 365.03 163.11 364.19C161.72 363.35 160.62 362.22 159.82 360.8C159.02 359.38 158.62 357.83 158.62 356.15V354.38C158.62 352.65 159.02 351.07 159.82 349.65C160.62 348.23 161.72 347.11 163.13 346.3C164.54 345.49 166.11 345.08 167.84 345.08H177.5V357.81C177.5 358.36 177.65 358.8 177.95 359.11C178.25 359.43 178.68 359.58 179.23 359.58H180.77L180.76 359.57ZM161.9 341.48C161.2 340.8 160.86 339.98 160.86 339.04C160.86 338.1 161.21 337.31 161.9 336.62C162.6 335.92 163.42 335.58 164.36 335.58C165.3 335.58 166.12 335.93 166.8 336.62C167.48 337.32 167.82 338.12 167.82 339.04C167.82 340.01 167.48 340.83 166.8 341.5C166.12 342.17 165.3 342.5 164.36 342.5C163.42 342.5 162.59 342.16 161.9 341.48ZM169.78 359C170.45 358.72 171.01 358.32 171.45 357.8V351.06H167.82C166.85 351.06 166.07 351.36 165.48 351.97C164.89 352.57 164.59 353.38 164.59 354.37V356.14C164.59 357.06 164.89 357.83 165.48 358.47C166.07 359.1 166.79 359.42 167.63 359.42C168.39 359.42 169.11 359.28 169.78 359.01V359ZM171 341.48C170.3 340.8 169.96 339.98 169.96 339.04C169.96 338.1 170.31 337.31 171 336.62C171.7 335.92 172.52 335.58 173.46 335.58C174.4 335.58 175.22 335.93 175.9 336.62C176.58 337.32 176.92 338.12 176.92 339.04C176.92 340.01 176.58 340.83 175.9 341.5C175.22 342.17 174.4 342.5 173.46 342.5C172.52 342.5 171.69 342.16 171 341.48Z" fill="#8CC05F"/>
<path d="M213.9 359.57V365.56H180.56L178 364.61V360.51L180.56 359.56H183.59V347.11H189.58V351.17C193.15 347.18 196.8 345.18 200.54 345.18C207.79 345.18 211.42 349.45 211.42 357.99V359.57H213.9ZM205.62 357.99C205.62 355.76 205.08 354.05 204 352.87C202.92 351.69 201.5 351.1 199.74 351.1C197.98 351.1 196.23 351.56 194.58 352.48C192.92 353.4 191.26 354.87 189.58 356.89V359.57H205.62V357.99V357.99ZM197.8 341.75C197.1 341.07 196.76 340.24 196.76 339.27C196.76 338.35 197.11 337.54 197.8 336.85C198.5 336.15 199.32 335.81 200.26 335.81C201.2 335.81 202.02 336.16 202.7 336.85C203.38 337.55 203.72 338.35 203.72 339.27C203.72 340.24 203.38 341.07 202.7 341.75C202.02 342.43 201.2 342.77 200.26 342.77C199.32 342.77 198.49 342.43 197.8 341.75Z" fill="#8CC05F"/>
<path d="M222.96 359.57V365.56H213.46V359.57H222.96Z" fill="#8CC05F"/>
<path d="M231.67 359.57V365.56H222.17V359.57H231.67Z" fill="#8CC05F"/>
<path d="M240.38 359.57V365.56H230.88V359.57H240.38Z" fill="#8CC05F"/>
<path d="M249.09 359.57V365.56H239.59V359.57H249.09Z" fill="#8CC05F"/>
<path d="M257.8 359.57V365.56H248.3V359.57H257.8Z" fill="#8CC05F"/>
<path d="M266.51 359.57V365.56H257.01V359.57H266.51Z" fill="#8CC05F"/>
<path d="M275.22 359.57V365.56H265.72V359.57H275.22Z" fill="#8CC05F"/>
<path d="M277.7 359.57C278.04 359.57 278.36 359.44 278.67 359.18C278.97 358.92 279.12 358.51 279.12 357.96V346.89H285.15V360.17C285.15 361.69 284.63 362.97 283.59 364.01C282.55 365.05 281.27 365.57 279.75 365.57H274.15V359.58H277.7V359.57ZM278.31 376.32C277.61 375.64 277.27 374.82 277.27 373.88C277.27 372.94 277.62 372.15 278.31 371.46C279.01 370.76 279.83 370.42 280.77 370.42C281.71 370.42 282.53 370.77 283.21 371.46C283.89 372.16 284.23 372.96 284.23 373.88C284.23 374.85 283.89 375.67 283.21 376.34C282.53 377.01 281.71 377.35 280.77 377.35C279.83 377.35 279 377.01 278.31 376.33V376.32Z" fill="#8CC05F"/>
<path d="M295.87 357.95C295.87 358.5 296.02 358.91 296.32 359.17C296.62 359.43 296.96 359.56 297.32 359.56H299.01V365.55H295.27C294.27 365.55 293.36 365.31 292.53 364.84C291.7 364.37 291.05 363.72 290.56 362.89C290.07 362.06 289.83 361.15 289.83 360.15V338.12H295.86V357.94L295.87 357.95Z" fill="#8CC05F"/>
<path d="M322 359.57V365.56H298.51L295.91 364.61V360.51L298.51 359.56H301.78C301.25 358.56 300.99 357.45 300.99 356.21V354.44C300.99 352.71 301.39 351.13 302.19 349.71C302.99 348.29 304.1 347.18 305.52 346.38C306.94 345.58 308.53 345.18 310.29 345.18C312.05 345.18 313.67 345.58 315.08 346.38C316.49 347.18 317.59 348.29 318.39 349.69C319.19 351.1 319.59 352.68 319.59 354.44V356.21C319.59 357.39 319.31 358.51 318.76 359.56H321.99L322 359.57ZM302.55 341.84C301.85 341.16 301.51 340.33 301.51 339.36C301.51 338.44 301.86 337.64 302.55 336.96C303.25 336.28 304.07 335.94 305.01 335.94C305.95 335.94 306.77 336.28 307.45 336.96C308.13 337.64 308.47 338.44 308.47 339.36C308.47 340.33 308.13 341.16 307.45 341.84C306.77 342.52 305.95 342.86 305.01 342.86C304.07 342.86 303.24 342.52 302.55 341.84ZM313.6 354.45C313.6 353.45 313.3 352.66 312.71 352.07C312.12 351.48 311.31 351.18 310.29 351.18C309.27 351.18 308.46 351.48 307.87 352.07C307.28 352.66 306.98 353.46 306.98 354.45V356.22C306.98 357.11 307.34 357.89 308.06 358.56C308.78 359.23 309.58 359.57 310.44 359.57C311.3 359.57 312.08 359.25 312.69 358.6C313.29 357.96 313.6 357.16 313.6 356.22V354.45V354.45ZM311.65 341.84C310.95 341.16 310.61 340.33 310.61 339.36C310.61 338.44 310.96 337.64 311.65 336.96C312.35 336.28 313.17 335.94 314.11 335.94C315.05 335.94 315.84 336.28 316.53 336.96C317.23 337.64 317.57 338.44 317.57 339.36C317.57 340.28 317.23 341.13 316.55 341.82C315.87 342.52 315.05 342.86 314.11 342.86C313.17 342.86 312.34 342.52 311.65 341.84V341.84Z" fill="#8CC05F"/>
<path d="M331.02 338.13V360.16C331.02 361.16 330.78 362.07 330.31 362.9C329.84 363.73 329.19 364.38 328.38 364.85C327.57 365.32 326.66 365.56 325.66 365.56H321.84L319.24 364.61V360.51L321.84 359.56H323.57C323.94 359.56 324.27 359.43 324.57 359.17C324.87 358.91 325.02 358.5 325.02 357.95V338.13H331.01H331.02Z" fill="#8CC05F"/>
<path d="M336.19 365.56V338.13H342.18V365.56H336.19Z" fill="#8CC05F"/>
<path d="M366.81 365.56H363.7V365.6C363.7 367.31 363.3 368.85 362.5 370.23C361.7 371.61 360.61 372.7 359.23 373.5C357.85 374.3 356.31 374.7 354.6 374.7H352.67V368.71H354.6C355.52 368.71 356.26 368.43 356.83 367.86C357.39 367.29 357.68 366.54 357.68 365.59V346.44H363.71V359.56H366.82V365.55L366.81 365.56Z" fill="#8CC05F"/>
<path d="M386.67 359.57V365.56H381.63C379.84 365.56 378.17 364.81 376.63 363.31C375.13 364.81 373.15 365.56 370.68 365.56H366.23L363.63 364.61V360.55L366.23 359.56H370.76C371.86 359.56 372.61 359.29 372.99 358.75C373.37 358.21 373.57 357.47 373.6 356.52L373.56 346.86H379.59V353.91C379.59 354.49 379.58 354.95 379.55 355.29V356.35C379.55 357.35 379.75 358.13 380.16 358.69C380.57 359.26 381.34 359.54 382.47 359.54H386.69L386.67 359.57ZM373.45 370.31C374.15 371.01 374.49 371.81 374.49 372.73C374.49 373.7 374.14 374.53 373.45 375.21C372.75 375.89 371.93 376.23 370.99 376.23C370.05 376.23 369.23 375.89 368.55 375.21C367.87 374.53 367.53 373.7 367.53 372.73C367.53 371.81 367.87 371 368.55 370.31C369.23 369.61 370.05 369.27 370.99 369.27C371.93 369.27 372.76 369.62 373.45 370.31ZM382.53 370.31C383.21 371.01 383.55 371.81 383.55 372.73C383.55 373.7 383.21 374.53 382.53 375.21C381.85 375.89 381.03 376.23 380.09 376.23C379.15 376.23 378.33 375.89 377.65 375.21C376.97 374.53 376.63 373.7 376.63 372.73C376.63 371.81 376.97 371 377.65 370.31C378.33 369.61 379.15 369.27 380.09 369.27C381.03 369.27 381.85 369.62 382.53 370.31Z" fill="#8CC05F"/>
<path d="M413.07 359.57V365.56H386.23L383.63 364.61V360.55L386.23 359.56H400.93C400.59 359.03 400.18 358.36 399.71 357.55C399.55 357.26 399.29 356.83 398.92 356.25C397.84 354.49 396.76 353.16 395.67 352.27C394.58 351.38 393.26 350.93 391.71 350.93C390.53 350.93 389.24 351.19 387.85 351.72V346.2C389.48 345.65 391.02 345.37 392.46 345.37C395.14 345.37 397.58 346.24 399.79 347.97C402 349.7 403.91 352.17 405.54 355.38C406.85 358.03 408.09 359.41 409.24 359.52V359.56H413.06L413.07 359.57ZM391.16 341.4C390.48 340.72 390.14 339.89 390.14 338.92C390.14 338 390.48 337.2 391.16 336.52C391.84 335.84 392.66 335.5 393.6 335.5C394.54 335.5 395.36 335.84 396.04 336.52C396.72 337.2 397.06 338 397.06 338.92C397.06 339.89 396.72 340.72 396.04 341.4C395.36 342.08 394.54 342.42 393.6 342.42C392.66 342.42 391.84 342.08 391.16 341.4Z" fill="#8CC05F"/>
<path d="M422.14 338.13V360.16C422.14 361.16 421.9 362.07 421.43 362.9C420.96 363.73 420.31 364.38 419.5 364.85C418.69 365.32 417.78 365.56 416.78 365.56H412.96L410.36 364.61V360.51L412.96 359.56H414.69C415.06 359.56 415.39 359.43 415.69 359.17C415.99 358.91 416.14 358.5 416.14 357.95V338.13H422.13H422.14Z" fill="#8CC05F"/>
<path d="M427.3 365.56V338.13H433.29V365.56H427.3Z" fill="#8CC05F"/>
</g>
<defs>
<clipPath id="clip0_209_245">
<rect width="487.01" height="379.34" fill="white"/>
</clipPath>
</defs>
</svg>
